<?xml version="1.0" encoding="UTF-8" ?>
<svg version="1.1" width="29" height="26" xmlns="http://www.w3.org/2000/svg" shape-rendering="crispEdges">
<style>
    .pxl{
        fill:rgb(119, 121, 125);
    }
</style>
<rect x="13" y="0" width="2" height="3" class="pxl" />
<rect x="12" y="1" width="1" height="4" class="pxl" />
<rect x="15" y="1" width="1" height="3" class="pxl" />
<rect x="1" y="2" width="2" height="2" class="pxl" />
<rect x="0" y="3" width="1" height="5" class="pxl" />
<rect x="3" y="3" width="1" height="2" class="pxl" />
<rect x="16" y="3" width="1" height="7" class="pxl" />
<rect x="4" y="4" width="1" height="2" class="pxl" />
<rect x="11" y="4" width="1" height="15" class="pxl" />
<rect x="14" y="4" width="1" height="4" class="pxl" />
<rect x="2" y="5" width="1" height="2" class="pxl" />
<rect x="3" y="6" width="1" height="4" class="pxl" />
<rect x="5" y="6" width="1" height="2" class="pxl" />
<rect x="13" y="6" width="1" height="4" class="pxl" />
<rect x="1" y="7" width="1" height="4" class="pxl" />
<rect x="6" y="8" width="1" height="15" class="pxl" />
<rect x="4" y="9" width="1" height="3" class="pxl" />
<rect x="15" y="9" width="1" height="2" class="pxl" />
<rect x="2" y="11" width="1" height="2" class="pxl" />
<rect x="7" y="11" width="1" height="12" class="pxl" />
<rect x="12" y="11" width="3" height="3" class="pxl" />
<rect x="3" y="13" width="3" height="1" class="pxl" />
<rect x="8" y="13" width="3" height="2" class="pxl" />
<rect x="4" y="14" width="2" height="8" class="pxl" />
<rect x="12" y="14" width="1" height="1" class="pxl" />
<rect x="14" y="14" width="3" height="1" class="pxl" />
<rect x="8" y="15" width="1" height="1" class="pxl" />
<rect x="10" y="15" width="1" height="1" class="pxl" />
<rect x="13" y="15" width="1" height="5" class="pxl" />
<rect x="15" y="15" width="3" height="4" class="pxl" />
<rect x="9" y="16" width="1" height="4" class="pxl" />
<rect x="3" y="17" width="1" height="4" class="pxl" />
<rect x="14" y="17" width="1" height="1" class="pxl" />
<rect x="10" y="18" width="1" height="3" class="pxl" />
<rect x="12" y="18" width="1" height="1" class="pxl" />
<rect x="8" y="19" width="1" height="4" class="pxl" />
<rect x="15" y="19" width="2" height="1" class="pxl" />
<rect x="21" y="19" width="1" height="5" class="pxl" />
<rect x="25" y="19" width="1" height="1" class="pxl" />
<rect x="27" y="19" width="1" height="5" class="pxl" />
<rect x="11" y="20" width="1" height="1" class="pxl" />
<rect x="14" y="20" width="2" height="1" class="pxl" />
<rect x="18" y="20" width="1" height="4" class="pxl" />
<rect x="28" y="20" width="1" height="1" class="pxl" />
<rect x="9" y="21" width="1" height="2" class="pxl" />
<rect x="12" y="21" width="3" height="1" class="pxl" />
<rect x="17" y="21" width="1" height="3" class="pxl" />
<rect x="19" y="21" width="1" height="2" class="pxl" />
<rect x="23" y="21" width="1" height="1" class="pxl" />
<rect x="25" y="21" width="1" height="3" class="pxl" />
<rect x="1" y="22" width="2" height="3" class="pxl" />
<rect x="10" y="22" width="2" height="1" class="pxl" />
<rect x="15" y="22" width="2" height="1" class="pxl" />
<rect x="22" y="22" width="1" height="1" class="pxl" />
<rect x="3" y="23" width="2" height="3" class="pxl" />
<rect x="16" y="23" width="1" height="1" class="pxl" />
<rect x="23" y="23" width="1" height="1" class="pxl" />
<rect x="28" y="23" width="1" height="1" class="pxl" />
<rect x="5" y="24" width="1" height="1" class="pxl" />
<rect x="2" y="25" width="1" height="1" class="pxl" />
</svg>