<?xml version="1.0" encoding="UTF-8" ?>
<svg version="1.1" width="148" height="55" xmlns="http://www.w3.org/2000/svg" shape-rendering="crispEdges">
<rect x="101" y="0" width="14" height="3" fill="#4A74C9" />
<rect x="68" y="1" width="8" height="3" fill="#4A74C9" />
<rect x="85" y="1" width="4" height="3" fill="#4A74C9" />
<rect x="97" y="1" width="4" height="3" fill="#4A74C9" />
<rect x="115" y="1" width="4" height="3" fill="#4A74C9" />
<rect x="129" y="1" width="10" height="3" fill="#4A74C9" />
<rect x="66" y="2" width="2" height="3" fill="#4A74C9" />
<rect x="76" y="2" width="1" height="8" fill="#4A74C9" />
<rect x="82" y="2" width="3" height="3" fill="#4A74C9" />
<rect x="89" y="2" width="1" height="4" fill="#4A74C9" />
<rect x="94" y="2" width="3" height="3" fill="#4A74C9" />
<rect x="119" y="2" width="2" height="6" fill="#4A74C9" />
<rect x="124" y="2" width="5" height="3" fill="#4A74C9" />
<rect x="139" y="2" width="3" height="3" fill="#4A74C9" />
<rect x="45" y="3" width="16" height="3" fill="#4A74C9" />
<rect x="65" y="3" width="1" height="11" fill="#4A74C9" />
<rect x="81" y="3" width="1" height="4" fill="#4A74C9" />
<rect x="90" y="3" width="4" height="3" fill="#4A74C9" />
<rect x="121" y="3" width="3" height="3" fill="#4A74C9" />
<rect x="142" y="3" width="1" height="5" fill="#4A74C9" />
<rect x="41" y="4" width="4" height="3" fill="#4A74C9" />
<rect x="61" y="4" width="2" height="4" fill="#4A74C9" />
<rect x="64" y="4" width="1" height="8" fill="#4A74C9" />
<rect x="74" y="4" width="2" height="1" fill="#4A74C9" />
<rect x="77" y="4" width="1" height="24" fill="#4A74C9" />
<rect x="80" y="4" width="1" height="5" fill="#4A74C9" />
<rect x="85" y="4" width="1" height="1" fill="#4A74C9" />
<rect x="88" y="4" width="1" height="1" fill="#4A74C9" />
<rect x="97" y="4" width="1" height="1" fill="#4A74C9" />
<rect x="118" y="4" width="1" height="7" fill="#4A74C9" />
<rect x="129" y="4" width="1" height="1" fill="#4A74C9" />
<rect x="138" y="4" width="1" height="1" fill="#4A74C9" />
<rect x="143" y="4" width="1" height="10" fill="#4A74C9" />
<rect x="38" y="5" width="3" height="3" fill="#4A74C9" />
<rect x="63" y="5" width="1" height="8" fill="#4A74C9" />
<rect x="66" y="5" width="1" height="10" fill="#4A74C9" />
<rect x="75" y="5" width="1" height="2" fill="#4A74C9" />
<rect x="79" y="5" width="1" height="13" fill="#4A74C9" />
<rect x="82" y="5" width="1" height="1" fill="#4A74C9" />
<rect x="94" y="5" width="1" height="1" fill="#4A74C9" />
<rect x="124" y="5" width="1" height="1" fill="#4A74C9" />
<rect x="141" y="5" width="1" height="1" fill="#4A74C9" />
<rect x="144" y="5" width="1" height="8" fill="#4A74C9" />
<rect x="37" y="6" width="1" height="4" fill="#4A74C9" />
<rect x="45" y="6" width="3" height="1" fill="#4A74C9" />
<rect x="57" y="6" width="4" height="1" fill="#4A74C9" />
<rect x="78" y="6" width="1" height="17" fill="#4A74C9" />
<rect x="90" y="6" width="3" height="2" fill="#4A74C9" />
<rect x="104" y="6" width="3" height="4" fill="#4A74C9" />
<rect x="36" y="7" width="1" height="15" fill="#4A74C9" />
<rect x="41" y="7" width="1" height="1" fill="#4A74C9" />
<rect x="60" y="7" width="1" height="1" fill="#4A74C9" />
<rect x="93" y="7" width="1" height="10" fill="#4A74C9" />
<rect x="101" y="7" width="3" height="4" fill="#4A74C9" />
<rect x="107" y="7" width="1" height="2" fill="#4A74C9" />
<rect x="117" y="7" width="1" height="8" fill="#4A74C9" />
<rect x="145" y="7" width="1" height="5" fill="#4A74C9" />
<rect x="29" y="8" width="5" height="4" fill="#4A74C9" />
<rect x="35" y="8" width="1" height="7" fill="#4A74C9" />
<rect x="38" y="8" width="1" height="1" fill="#4A74C9" />
<rect x="62" y="8" width="1" height="1" fill="#4A74C9" />
<rect x="91" y="8" width="2" height="1" fill="#4A74C9" />
<rect x="100" y="8" width="1" height="3" fill="#4A74C9" />
<rect x="119" y="8" width="1" height="2" fill="#4A74C9" />
<rect x="19" y="9" width="4" height="3" fill="#4A74C9" />
<rect x="28" y="9" width="1" height="4" fill="#4A74C9" />
<rect x="34" y="9" width="1" height="4" fill="#4A74C9" />
<rect x="92" y="9" width="1" height="5" fill="#4A74C9" />
<rect x="94" y="9" width="1" height="30" fill="#4A74C9" />
<rect x="99" y="9" width="1" height="1" fill="#4A74C9" />
<rect x="116" y="9" width="1" height="6" fill="#4A74C9" />
<rect x="17" y="10" width="2" height="3" fill="#4A74C9" />
<rect x="23" y="10" width="3" height="3" fill="#4A74C9" />
<rect x="27" y="10" width="1" height="34" fill="#4A74C9" />
<rect x="62" y="10" width="1" height="4" fill="#4A74C9" />
<rect x="104" y="10" width="1" height="1" fill="#4A74C9" />
<rect x="114" y="10" width="2" height="5" fill="#4A74C9" />
<rect x="6" y="11" width="5" height="3" fill="#4A74C9" />
<rect x="16" y="11" width="1" height="9" fill="#4A74C9" />
<rect x="26" y="11" width="1" height="31" fill="#4A74C9" />
<rect x="61" y="11" width="1" height="4" fill="#4A74C9" />
<rect x="67" y="11" width="1" height="5" fill="#4A74C9" />
<rect x="113" y="11" width="1" height="5" fill="#4A74C9" />
<rect x="142" y="11" width="1" height="4" fill="#4A74C9" />
<rect x="4" y="12" width="2" height="3" fill="#4A74C9" />
<rect x="11" y="12" width="1" height="3" fill="#4A74C9" />
<rect x="15" y="12" width="1" height="14" fill="#4A74C9" />
<rect x="19" y="12" width="1" height="1" fill="#4A74C9" />
<rect x="29" y="12" width="1" height="1" fill="#4A74C9" />
<rect x="37" y="12" width="1" height="20" fill="#4A74C9" />
<rect x="58" y="12" width="3" height="3" fill="#4A74C9" />
<rect x="112" y="12" width="1" height="4" fill="#4A74C9" />
<rect x="118" y="12" width="5" height="3" fill="#4A74C9" />
<rect x="141" y="12" width="1" height="4" fill="#4A74C9" />
<rect x="3" y="13" width="1" height="7" fill="#4A74C9" />
<rect x="12" y="13" width="3" height="6" fill="#4A74C9" />
<rect x="17" y="13" width="1" height="1" fill="#4A74C9" />
<rect x="24" y="13" width="2" height="2" fill="#4A74C9" />
<rect x="43" y="13" width="2" height="4" fill="#4A74C9" />
<rect x="52" y="13" width="6" height="3" fill="#4A74C9" />
<rect x="68" y="13" width="1" height="2" fill="#4A74C9" />
<rect x="95" y="13" width="1" height="23" fill="#4A74C9" />
<rect x="109" y="13" width="3" height="3" fill="#4A74C9" />
<rect x="123" y="13" width="1" height="6" fill="#4A74C9" />
<rect x="140" y="13" width="1" height="4" fill="#4A74C9" />
<rect x="2" y="14" width="1" height="14" fill="#4A74C9" />
<rect x="6" y="14" width="1" height="1" fill="#4A74C9" />
<rect x="10" y="14" width="1" height="1" fill="#4A74C9" />
<rect x="41" y="14" width="2" height="3" fill="#4A74C9" />
<rect x="45" y="14" width="1" height="2" fill="#4A74C9" />
<rect x="51" y="14" width="1" height="2" fill="#4A74C9" />
<rect x="107" y="14" width="2" height="3" fill="#4A74C9" />
<rect x="138" y="14" width="2" height="3" fill="#4A74C9" />
<rect x="4" y="15" width="1" height="2" fill="#4A74C9" />
<rect x="25" y="15" width="1" height="13" fill="#4A74C9" />
<rect x="38" y="15" width="3" height="2" fill="#4A74C9" />
<rect x="58" y="15" width="1" height="1" fill="#4A74C9" />
<rect x="76" y="15" width="1" height="13" fill="#4A74C9" />
<rect x="106" y="15" width="1" height="3" fill="#4A74C9" />
<rect x="121" y="15" width="2" height="7" fill="#4A74C9" />
<rect x="136" y="15" width="2" height="6" fill="#4A74C9" />
<rect x="1" y="16" width="1" height="10" fill="#4A74C9" />
<rect x="52" y="16" width="4" height="4" fill="#4A74C9" />
<rect x="96" y="16" width="1" height="17" fill="#4A74C9" />
<rect x="105" y="16" width="1" height="2" fill="#4A74C9" />
<rect x="109" y="16" width="1" height="1" fill="#4A74C9" />
<rect x="135" y="16" width="1" height="5" fill="#4A74C9" />
<rect x="38" y="17" width="1" height="21" fill="#4A74C9" />
<rect x="42" y="17" width="2" height="3" fill="#4A74C9" />
<rect x="107" y="17" width="1" height="1" fill="#4A74C9" />
<rect x="131" y="17" width="4" height="4" fill="#4A74C9" />
<rect x="138" y="17" width="1" height="4" fill="#4A74C9" />
<rect x="24" y="18" width="1" height="12" fill="#4A74C9" />
<rect x="41" y="18" width="1" height="11" fill="#4A74C9" />
<rect x="87" y="18" width="1" height="5" fill="#4A74C9" />
<rect x="120" y="18" width="1" height="13" fill="#4A74C9" />
<rect x="129" y="18" width="2" height="4" fill="#4A74C9" />
<rect x="139" y="18" width="4" height="3" fill="#4A74C9" />
<rect x="13" y="19" width="2" height="9" fill="#4A74C9" />
<rect x="86" y="19" width="1" height="7" fill="#4A74C9" />
<rect x="88" y="19" width="1" height="2" fill="#4A74C9" />
<rect x="127" y="19" width="2" height="4" fill="#4A74C9" />
<rect x="143" y="19" width="2" height="5" fill="#4A74C9" />
<rect x="0" y="20" width="1" height="4" fill="#4A74C9" />
<rect x="42" y="20" width="1" height="4" fill="#4A74C9" />
<rect x="52" y="20" width="3" height="6" fill="#4A74C9" />
<rect x="83" y="20" width="2" height="4" fill="#4A74C9" />
<rect x="126" y="20" width="1" height="2" fill="#4A74C9" />
<rect x="145" y="20" width="1" height="3" fill="#4A74C9" />
<rect x="40" y="21" width="1" height="30" fill="#4A74C9" />
<rect x="82" y="21" width="1" height="1" fill="#4A74C9" />
<rect x="85" y="21" width="1" height="7" fill="#4A74C9" />
<rect x="119" y="21" width="1" height="12" fill="#4A74C9" />
<rect x="131" y="21" width="2" height="1" fill="#4A74C9" />
<rect x="142" y="21" width="1" height="5" fill="#4A74C9" />
<rect x="23" y="22" width="1" height="8" fill="#4A74C9" />
<rect x="75" y="22" width="1" height="6" fill="#4A74C9" />
<rect x="121" y="22" width="1" height="5" fill="#4A74C9" />
<rect x="3" y="23" width="1" height="7" fill="#4A74C9" />
<rect x="105" y="23" width="2" height="6" fill="#4A74C9" />
<rect x="141" y="23" width="1" height="4" fill="#4A74C9" />
<rect x="39" y="24" width="1" height="26" fill="#4A74C9" />
<rect x="84" y="24" width="1" height="5" fill="#4A74C9" />
<rect x="87" y="24" width="2" height="3" fill="#4A74C9" />
<rect x="104" y="24" width="1" height="17" fill="#4A74C9" />
<rect x="107" y="24" width="1" height="2" fill="#4A74C9" />
<rect x="140" y="24" width="1" height="7" fill="#4A74C9" />
<rect x="143" y="24" width="1" height="1" fill="#4A74C9" />
<rect x="4" y="25" width="1" height="9" fill="#4A74C9" />
<rect x="12" y="25" width="1" height="3" fill="#4A74C9" />
<rect x="22" y="25" width="1" height="7" fill="#4A74C9" />
<rect x="51" y="25" width="1" height="21" fill="#4A74C9" />
<rect x="65" y="25" width="5" height="3" fill="#4A74C9" />
<rect x="73" y="25" width="2" height="4" fill="#4A74C9" />
<rect x="78" y="25" width="1" height="5" fill="#4A74C9" />
<rect x="83" y="25" width="1" height="3" fill="#4A74C9" />
<rect x="89" y="25" width="1" height="4" fill="#4A74C9" />
<rect x="139" y="25" width="1" height="6" fill="#4A74C9" />
<rect x="28" y="26" width="1" height="26" fill="#4A74C9" />
<rect x="52" y="26" width="2" height="11" fill="#4A74C9" />
<rect x="63" y="26" width="2" height="9" fill="#4A74C9" />
<rect x="70" y="26" width="3" height="3" fill="#4A74C9" />
<rect x="79" y="26" width="1" height="6" fill="#4A74C9" />
<rect x="90" y="26" width="1" height="2" fill="#4A74C9" />
<rect x="103" y="26" width="1" height="22" fill="#4A74C9" />
<rect x="118" y="26" width="1" height="12" fill="#4A74C9" />
<rect x="137" y="26" width="2" height="5" fill="#4A74C9" />
<rect x="5" y="27" width="1" height="26" fill="#4A74C9" />
<rect x="62" y="27" width="1" height="5" fill="#4A74C9" />
<rect x="80" y="27" width="1" height="17" fill="#4A74C9" />
<rect x="88" y="27" width="1" height="1" fill="#4A74C9" />
<rect x="136" y="27" width="1" height="5" fill="#4A74C9" />
<rect x="6" y="28" width="1" height="26" fill="#4A74C9" />
<rect x="13" y="28" width="1" height="1" fill="#4A74C9" />
<rect x="21" y="28" width="1" height="7" fill="#4A74C9" />
<rect x="65" y="28" width="1" height="1" fill="#4A74C9" />
<rect x="69" y="28" width="1" height="1" fill="#4A74C9" />
<rect x="130" y="28" width="6" height="4" fill="#4A74C9" />
<rect x="141" y="28" width="2" height="3" fill="#4A74C9" />
<rect x="81" y="29" width="1" height="16" fill="#4A74C9" />
<rect x="105" y="29" width="1" height="7" fill="#4A74C9" />
<rect x="127" y="29" width="3" height="4" fill="#4A74C9" />
<rect x="143" y="29" width="2" height="3" fill="#4A74C9" />
<rect x="18" y="30" width="3" height="4" fill="#4A74C9" />
<rect x="65" y="30" width="1" height="5" fill="#4A74C9" />
<rect x="102" y="30" width="1" height="17" fill="#4A74C9" />
<rect x="117" y="30" width="1" height="14" fill="#4A74C9" />
<rect x="126" y="30" width="1" height="2" fill="#4A74C9" />
<rect x="145" y="30" width="1" height="12" fill="#4A74C9" />
<rect x="7" y="31" width="1" height="10" fill="#4A74C9" />
<rect x="17" y="31" width="1" height="2" fill="#4A74C9" />
<rect x="66" y="31" width="1" height="4" fill="#4A74C9" />
<rect x="82" y="31" width="1" height="10" fill="#4A74C9" />
<rect x="67" y="32" width="1" height="2" fill="#4A74C9" />
<rect x="116" y="32" width="1" height="12" fill="#4A74C9" />
<rect x="130" y="32" width="2" height="1" fill="#4A74C9" />
<rect x="144" y="32" width="1" height="3" fill="#4A74C9" />
<rect x="146" y="32" width="1" height="9" fill="#4A74C9" />
<rect x="13" y="33" width="1" height="7" fill="#4A74C9" />
<rect x="22" y="33" width="2" height="3" fill="#4A74C9" />
<rect x="93" y="33" width="1" height="8" fill="#4A74C9" />
<rect x="12" y="34" width="1" height="4" fill="#4A74C9" />
<rect x="14" y="34" width="1" height="10" fill="#4A74C9" />
<rect x="20" y="34" width="1" height="1" fill="#4A74C9" />
<rect x="24" y="34" width="2" height="4" fill="#4A74C9" />
<rect x="41" y="34" width="1" height="13" fill="#4A74C9" />
<rect x="101" y="34" width="1" height="12" fill="#4A74C9" />
<rect x="15" y="35" width="1" height="17" fill="#4A74C9" />
<rect x="50" y="35" width="1" height="14" fill="#4A74C9" />
<rect x="64" y="35" width="1" height="1" fill="#4A74C9" />
<rect x="147" y="35" width="1" height="4" fill="#4A74C9" />
<rect x="23" y="36" width="1" height="1" fill="#4A74C9" />
<rect x="92" y="36" width="1" height="13" fill="#4A74C9" />
<rect x="100" y="36" width="1" height="6" fill="#4A74C9" />
<rect x="16" y="37" width="1" height="14" fill="#4A74C9" />
<rect x="52" y="37" width="1" height="10" fill="#4A74C9" />
<rect x="115" y="37" width="1" height="9" fill="#4A74C9" />
<rect x="25" y="38" width="1" height="1" fill="#4A74C9" />
<rect x="91" y="38" width="1" height="11" fill="#4A74C9" />
<rect x="99" y="38" width="1" height="6" fill="#4A74C9" />
<rect x="144" y="38" width="1" height="5" fill="#4A74C9" />
<rect x="17" y="39" width="1" height="11" fill="#4A74C9" />
<rect x="29" y="40" width="1" height="11" fill="#4A74C9" />
<rect x="79" y="40" width="1" height="5" fill="#4A74C9" />
<rect x="90" y="40" width="1" height="8" fill="#4A74C9" />
<rect x="98" y="40" width="1" height="5" fill="#4A74C9" />
<rect x="118" y="40" width="3" height="3" fill="#4A74C9" />
<rect x="143" y="40" width="1" height="4" fill="#4A74C9" />
<rect x="49" y="41" width="1" height="9" fill="#4A74C9" />
<rect x="69" y="41" width="2" height="4" fill="#4A74C9" />
<rect x="97" y="41" width="1" height="6" fill="#4A74C9" />
<rect x="114" y="41" width="1" height="6" fill="#4A74C9" />
<rect x="121" y="41" width="3" height="3" fill="#4A74C9" />
<rect x="139" y="41" width="4" height="3" fill="#4A74C9" />
<rect x="30" y="42" width="1" height="9" fill="#4A74C9" />
<rect x="68" y="42" width="1" height="2" fill="#4A74C9" />
<rect x="71" y="42" width="1" height="10" fill="#4A74C9" />
<rect x="78" y="42" width="1" height="4" fill="#4A74C9" />
<rect x="82" y="42" width="1" height="4" fill="#4A74C9" />
<rect x="89" y="42" width="1" height="4" fill="#4A74C9" />
<rect x="124" y="42" width="15" height="3" fill="#4A74C9" />
<rect x="4" y="43" width="1" height="8" fill="#4A74C9" />
<rect x="53" y="43" width="1" height="5" fill="#4A74C9" />
<rect x="72" y="43" width="1" height="8" fill="#4A74C9" />
<rect x="76" y="43" width="2" height="4" fill="#4A74C9" />
<rect x="83" y="43" width="3" height="3" fill="#4A74C9" />
<rect x="88" y="43" width="1" height="4" fill="#4A74C9" />
<rect x="96" y="43" width="1" height="5" fill="#4A74C9" />
<rect x="120" y="43" width="1" height="1" fill="#4A74C9" />
<rect x="54" y="44" width="1" height="5" fill="#4A74C9" />
<rect x="73" y="44" width="3" height="3" fill="#4A74C9" />
<rect x="86" y="44" width="2" height="3" fill="#4A74C9" />
<rect x="113" y="44" width="1" height="4" fill="#4A74C9" />
<rect x="123" y="44" width="1" height="1" fill="#4A74C9" />
<rect x="139" y="44" width="1" height="1" fill="#4A74C9" />
<rect x="38" y="45" width="1" height="5" fill="#4A74C9" />
<rect x="70" y="45" width="1" height="1" fill="#4A74C9" />
<rect x="95" y="45" width="1" height="4" fill="#4A74C9" />
<rect x="104" y="45" width="1" height="4" fill="#4A74C9" />
<rect x="112" y="45" width="1" height="4" fill="#4A74C9" />
<rect x="18" y="46" width="1" height="5" fill="#4A74C9" />
<rect x="48" y="46" width="1" height="5" fill="#4A74C9" />
<rect x="55" y="46" width="1" height="4" fill="#4A74C9" />
<rect x="85" y="46" width="1" height="1" fill="#4A74C9" />
<rect x="93" y="46" width="2" height="3" fill="#4A74C9" />
<rect x="105" y="46" width="1" height="4" fill="#4A74C9" />
<rect x="109" y="46" width="3" height="3" fill="#4A74C9" />
<rect x="37" y="47" width="1" height="4" fill="#4A74C9" />
<rect x="56" y="47" width="2" height="4" fill="#4A74C9" />
<rect x="73" y="47" width="1" height="2" fill="#4A74C9" />
<rect x="106" y="47" width="3" height="3" fill="#4A74C9" />
<rect x="19" y="48" width="1" height="4" fill="#4A74C9" />
<rect x="27" y="48" width="1" height="4" fill="#4A74C9" />
<rect x="31" y="48" width="6" height="3" fill="#4A74C9" />
<rect x="41" y="48" width="2" height="3" fill="#4A74C9" />
<rect x="46" y="48" width="2" height="3" fill="#4A74C9" />
<rect x="58" y="48" width="1" height="5" fill="#4A74C9" />
<rect x="14" y="49" width="1" height="4" fill="#4A74C9" />
<rect x="20" y="49" width="1" height="4" fill="#4A74C9" />
<rect x="26" y="49" width="1" height="4" fill="#4A74C9" />
<rect x="43" y="49" width="3" height="3" fill="#4A74C9" />
<rect x="59" y="49" width="2" height="4" fill="#4A74C9" />
<rect x="70" y="49" width="1" height="4" fill="#4A74C9" />
<rect x="109" y="49" width="1" height="1" fill="#4A74C9" />
<rect x="7" y="50" width="1" height="4" fill="#4A74C9" />
<rect x="13" y="50" width="1" height="3" fill="#4A74C9" />
<rect x="21" y="50" width="1" height="4" fill="#4A74C9" />
<rect x="25" y="50" width="1" height="4" fill="#4A74C9" />
<rect x="61" y="50" width="2" height="4" fill="#4A74C9" />
<rect x="69" y="50" width="1" height="4" fill="#4A74C9" />
<rect x="8" y="51" width="2" height="3" fill="#4A74C9" />
<rect x="11" y="51" width="2" height="3" fill="#4A74C9" />
<rect x="22" y="51" width="3" height="3" fill="#4A74C9" />
<rect x="57" y="51" width="1" height="1" fill="#4A74C9" />
<rect x="63" y="51" width="6" height="3" fill="#4A74C9" />
<rect x="10" y="52" width="1" height="3" fill="#4A74C9" />
<rect x="9" y="54" width="1" height="1" fill="#4A74C9" />
<rect x="11" y="54" width="1" height="1" fill="#4A74C9" />
</svg>